<svg width="10" height="34" viewBox="0 0 10 34" fill="none" xmlns="http://www.w3.org/2000/svg">
<path fill-rule="evenodd" clip-rule="evenodd" d="M5.02241 0.373047C7.2536 0.373047 9.06365 2.18282 9.06365 4.41428C9.06365 6.64547 7.2536 8.45471 5.02241 8.45471C2.79122 8.45444 0.981445 6.64547 0.981445 4.41428C0.981445 2.18282 2.79122 0.373047 5.02241 0.373047ZM5.02241 25.4439C7.2536 25.4439 9.06365 27.2536 9.06365 29.4851C9.06365 31.7166 7.2536 33.5255 5.02241 33.5255C2.79122 33.5253 0.981445 31.7163 0.981445 29.4848C0.981445 27.2534 2.79122 25.4439 5.02241 25.4439ZM5.02241 12.9085C7.2536 12.9085 9.06365 14.7182 9.06365 16.9497C9.06365 19.1812 7.2536 20.9907 5.02241 20.9907C2.79122 20.9904 0.981445 19.1809 0.981445 16.9494C0.981445 14.718 2.79122 12.9085 5.02241 12.9085Z" fill="#333333"/>
</svg>
