<svg width="39" height="38" viewBox="0 0 39 38" fill="none" xmlns="http://www.w3.org/2000/svg">
<path d="M2.95525 0.500036H16.2157C16.5323 0.4999 16.845 0.569413 17.1308 0.703477C17.4165 0.83754 17.6681 1.03275 17.867 1.27479C18.025 1.45869 18.1466 1.66992 18.2258 1.89764C18.3103 2.12229 18.3532 2.35998 18.3526 2.59948V15.5698C18.3514 15.8534 18.2925 16.1339 18.1794 16.3948C18.0663 16.6557 17.9012 16.8917 17.6939 17.089C17.2955 17.4632 16.7668 17.674 16.2157 17.6784H2.95525C2.68507 17.6743 2.41827 17.6186 2.16977 17.5143C1.90848 17.4148 1.67014 17.2649 1.46883 17.0734C1.26753 16.8819 1.10734 16.6527 0.997731 16.3993C0.878628 16.1385 0.817482 15.8557 0.818369 15.5698V2.59948C0.821648 2.09246 1.00919 1.60327 1.34718 1.22011L1.43686 1.13503C1.62053 0.950965 1.83628 0.800728 2.0739 0.691447C2.35073 0.567507 2.65104 0.502286 2.95525 0.500036ZM23.4211 20.3278H36.6908C37.0117 20.3259 37.3289 20.3955 37.6185 20.5313C37.9034 20.6666 38.1546 20.8616 38.3545 21.1025C38.5087 21.2834 38.63 21.4889 38.7132 21.7102C38.7978 21.9359 38.8407 22.1746 38.84 22.415V35.3854C38.8393 35.6666 38.7804 35.9446 38.6668 36.2027C38.5536 36.4631 38.3885 36.6986 38.1813 36.8954C37.9834 37.0827 37.7502 37.2303 37.4948 37.3299C37.2438 37.4319 36.9748 37.4845 36.7031 37.4848H23.4211C23.1509 37.483 22.8834 37.4315 22.6325 37.3329C22.3798 37.2343 22.1489 37.0889 21.9522 36.9045C21.7433 36.7078 21.5762 36.4723 21.4605 36.2118C21.3441 35.9513 21.2841 35.6699 21.2842 35.3854V22.4302C21.2834 22.1778 21.3306 21.9274 21.4233 21.6919C21.5125 21.4565 21.6433 21.2384 21.8099 21.0478L21.8965 20.9628C22.0809 20.779 22.2978 20.6297 22.5366 20.5222C22.8137 20.3953 23.1154 20.3289 23.4211 20.3278ZM36.6908 22.4211H23.4211V35.4006C24.5591 35.4006 36.6846 35.4006 36.6969 35.4006C36.6969 34.3068 36.6969 22.4272 36.6969 22.4211H36.6908ZM2.95525 20.3278H16.2157C16.5323 20.3276 16.845 20.3971 17.1308 20.5312C17.4165 20.6653 17.6681 20.8605 17.867 21.1025C18.0233 21.2819 18.1449 21.4878 18.2258 21.7102C18.3103 21.9359 18.3533 22.1746 18.3526 22.415V35.3854C18.3519 35.6666 18.2929 35.9446 18.1794 36.2027C18.0685 36.4643 17.9031 36.7003 17.6939 36.8954C17.2955 37.2696 16.7668 37.4804 16.2157 37.4848H2.95525C2.68603 37.4832 2.41954 37.4317 2.16977 37.3329C1.9158 37.2351 1.68366 37.0896 1.48634 36.9045C1.27748 36.7085 1.11127 36.4728 0.997731 36.2118C0.881092 35.9566 0.82 35.6803 0.818369 35.4006V22.4302C0.819087 22.1779 0.866232 21.9278 0.957529 21.6919C1.04788 21.4564 1.17978 21.2384 1.34718 21.0478L1.43686 20.9628C1.61985 20.7787 1.8358 20.6293 2.0739 20.5222C2.34994 20.3956 2.65062 20.3293 2.95525 20.3278ZM16.2157 22.4211H2.95525V35.4006C4.09018 35.4006 16.2188 35.4006 16.228 35.4006C16.228 34.3068 16.228 22.4272 16.228 22.4211H16.2157ZM23.4211 0.500036H36.6908C37.0117 0.498176 37.3289 0.567772 37.6185 0.7036C37.9034 0.838865 38.1546 1.03384 38.3545 1.27479C38.5102 1.46022 38.6316 1.67102 38.7132 1.89764C38.7977 2.12229 38.8407 2.35998 38.84 2.59948V15.5698C38.8397 15.852 38.7807 16.1311 38.6668 16.3902C38.5529 16.6502 38.3879 16.8856 38.1813 17.0829C37.9759 17.2704 37.7354 17.4169 37.4732 17.5143C37.2217 17.6149 36.953 17.6675 36.6815 17.6693H23.4211C23.1505 17.6681 22.8827 17.6155 22.6325 17.5143C22.3806 17.4157 22.1498 17.2714 21.9522 17.089C21.7433 16.8922 21.5762 16.6568 21.4605 16.3962C21.3438 16.1347 21.2838 15.8523 21.2842 15.5668V2.59948C21.2837 2.34802 21.3309 2.09868 21.4233 1.86422C21.5119 1.62852 21.6429 1.41035 21.8099 1.22011L21.8965 1.13503C22.0815 0.951117 22.2982 0.800924 22.5366 0.691447C22.8144 0.56709 23.1158 0.501859 23.4211 0.500036ZM36.6908 2.5934H23.4211V15.5789C24.5591 15.5789 36.6846 15.5789 36.6969 15.5789C36.6969 14.4852 36.6969 2.60252 36.6969 2.59948L36.6908 2.5934ZM16.2249 2.5934H2.95525V15.5729C4.09018 15.5729 16.2188 15.5729 16.228 15.5729C16.228 14.4791 16.228 2.59644 16.228 2.5934H16.2249Z" fill="#E31F25"/>
</svg>
