<svg width="39" height="30" viewBox="0 0 39 30" fill="none" xmlns="http://www.w3.org/2000/svg">
<path d="M6.76016 0.5H32.8769C34.5025 0.5 35.9833 1.13712 37.0594 2.15092C38.1442 3.17262 38.8184 4.58016 38.8184 6.10764V23.8924C38.8184 25.4164 38.1374 26.8209 37.0545 27.84C35.9728 28.8591 34.4872 29.5 32.8769 29.5H6.76016C5.14635 29.5 3.65582 28.8656 2.57252 27.8446C1.49531 26.8305 0.818359 25.4317 0.818359 23.8924V6.10764C0.818359 4.56534 1.48841 3.16277 2.5677 2.14638C3.64617 1.13062 5.13054 0.5 6.76016 0.5ZM25.0722 19.9679H20.9728V9.93344H25.0306C26.1268 9.93344 27.0742 10.1331 27.875 10.5334C28.6732 10.9335 29.2913 11.5084 29.7254 12.2579C30.16 13.0074 30.3802 13.9065 30.3802 14.9507C30.3802 15.9967 30.1629 16.8935 29.7283 17.6431C29.2961 18.3929 28.6808 18.9678 27.8871 19.3676C27.0936 19.7678 26.1538 19.9679 25.0722 19.9679ZM12.3794 19.9679H9.25696L12.7749 9.93344H16.7279L20.2439 19.9679H17.1234L16.5078 18.0478H12.9946L12.3794 19.9679ZM15.8539 16.0085L14.7919 12.6972H14.7089L13.6482 16.0085H15.8539ZM23.8659 17.6548H24.9694C25.4971 17.6548 25.9462 17.5766 26.3196 17.4156C26.6909 17.2546 26.9763 16.9786 27.1718 16.5879C27.3669 16.1945 27.4649 15.6496 27.4649 14.9507C27.4649 14.2517 27.3669 13.7068 27.167 13.3157C26.9666 12.9223 26.6763 12.6467 26.2929 12.4857C25.9095 12.327 25.4407 12.2465 24.8867 12.2465H23.8659V17.6548ZM32.8769 2.82977H6.76016C5.79502 2.82977 4.92013 3.19925 4.2892 3.79346C3.65864 4.38724 3.26713 5.20665 3.26713 6.10764V23.8924C3.26713 24.7877 3.66346 25.604 4.29402 26.1975C4.9306 26.7974 5.80831 27.1702 6.76016 27.1702H32.8769C33.8228 27.1702 34.6964 26.7928 35.333 26.1929C35.9692 25.5942 36.3696 24.7752 36.3696 23.8924V6.10764C36.3696 5.21917 35.974 4.39717 35.3379 3.798C34.7069 3.2038 33.8357 2.82977 32.8769 2.82977Z" fill="#E31F25"/>
</svg>
