<svg width="31" height="31" viewBox="0 0 31 31" fill="none" xmlns="http://www.w3.org/2000/svg">
<path d="M20.1246 17.1054L28.8742 17.1795C29.2284 17.1825 29.5243 17.3048 29.7618 17.5464C29.9993 17.788 30.1166 18.0859 30.1136 18.44L30.0183 29.6896C30.0153 30.0438 29.893 30.3396 29.6514 30.5772C29.4098 30.8147 29.1119 30.932 28.7578 30.929L20.0081 30.8549C19.6539 30.8519 19.3581 30.7296 19.1206 30.488C18.883 30.2464 18.7657 29.9485 18.7687 29.5943L18.864 18.3447C18.867 17.9906 18.9893 17.6947 19.2309 17.4572C19.4725 17.2196 19.7704 17.1024 20.1246 17.1054ZM15.2624 0.813609L29.0119 0.930071C29.366 0.933071 29.6619 1.05537 29.8994 1.29698C30.137 1.53858 30.2543 1.83646 30.2513 2.19061L30.156 13.4402C30.153 13.7944 30.0307 14.0902 29.7891 14.3278C29.5475 14.5653 29.2496 14.6826 28.8954 14.6796L15.1459 14.5631C14.7918 14.5601 14.4959 14.4378 14.2584 14.1962C14.0208 13.9546 13.9035 13.6567 13.9065 13.3026L14.0018 2.05298C14.0048 1.69882 14.1271 1.40297 14.3687 1.16543C14.6103 0.927882 14.9082 0.810609 15.2624 0.813609ZM1.37523 16.9466L15.1247 17.063C15.4789 17.066 15.7747 17.1883 16.0123 17.4299C16.2498 17.6715 16.3671 17.9694 16.3641 18.3236L16.2688 29.5732C16.2658 29.9273 16.1435 30.2232 15.9019 30.4607C15.6603 30.6983 15.3624 30.8155 15.0083 30.8125L1.25877 30.6961C0.904618 30.6931 0.608768 30.5708 0.371222 30.3292C0.133678 30.0876 0.0164036 29.7897 0.0194034 29.4355L0.114691 18.1859C0.117691 17.8318 0.239994 17.5359 0.481596 17.2984C0.723201 17.0608 1.02108 16.9436 1.37523 16.9466ZM1.51287 0.697146L10.2626 0.771259C10.6167 0.774259 10.9126 0.896561 11.1501 1.13816C11.3877 1.37977 11.5049 1.67765 11.5019 2.0318L11.4066 13.2814C11.4036 13.6356 11.2813 13.9314 11.0397 14.1689C10.7981 14.4065 10.5003 14.5238 10.1461 14.5208L1.39641 14.4467C1.04226 14.4437 0.746405 14.3214 0.508859 14.0797C0.271315 13.8381 0.154041 13.5403 0.157041 13.1861L0.252328 1.93651C0.255328 1.58236 0.377631 1.28651 0.619234 1.04896C0.860838 0.81142 1.15872 0.694147 1.51287 0.697146ZM16.4912 3.32411L16.417 12.0738L27.6666 12.1691L27.7408 3.41939L16.4912 3.32411ZM2.60401 19.4571L2.5299 28.2067L13.7795 28.302L13.8536 19.5523L2.60401 19.4571ZM21.3533 19.6159L21.2792 28.3656L27.529 28.4185L27.6031 19.6688L21.3533 19.6159ZM2.74165 3.20764L2.66754 11.9573L8.91732 12.0103L8.99143 3.26058L2.74165 3.20764Z" fill="#333333"/>
</svg>
