<svg width="39" height="40" viewBox="0 0 39 40" fill="none" xmlns="http://www.w3.org/2000/svg">
<path d="M9.14311 27.9541C8.54684 27.9541 8.06916 27.4907 8.06916 26.9194C8.06916 26.3481 8.55343 25.8848 9.14311 25.8848H16.2226C16.8189 25.8848 17.2966 26.3481 17.2966 26.9194C17.2966 27.4907 16.8156 27.9541 16.2226 27.9541H9.14311ZM20.9467 24.9548C20.6304 24.9548 20.3603 24.6946 20.3603 24.3772C20.3603 24.0725 20.6304 23.8123 20.9467 23.8123H22.4785C22.4917 23.8123 22.5246 23.8123 22.5378 23.8123C23.0781 23.825 23.5591 23.9265 23.9643 24.1741C24.4156 24.4502 24.745 24.8691 24.9262 25.4912C24.9262 25.5039 24.9262 25.5198 24.9427 25.5356L25.0942 26.1133H38.2353C38.5647 26.1133 38.8217 26.3735 38.8217 26.6782C38.8217 26.7354 38.8052 26.7925 38.792 26.8528L37.2601 32.8005C37.2008 33.0608 36.9604 33.2354 36.6902 33.2354H27.0774C27.2882 33.9875 27.4991 34.3938 27.7824 34.5811C28.1283 34.7969 28.7278 34.8127 29.7359 34.7969H29.7491H36.5387C36.8681 34.7969 37.1251 35.0571 37.1251 35.3618C37.1251 35.6792 36.8549 35.9268 36.5387 35.9268H29.7458C28.4972 35.9395 27.733 35.9109 27.1169 35.5205C26.4844 35.1143 26.155 34.4224 25.8256 33.1624L23.8127 25.8213C23.8127 25.8054 23.8127 25.8054 23.7995 25.7927C23.7106 25.4753 23.5591 25.2563 23.3482 25.1421C23.1374 25.012 22.8541 24.9548 22.5213 24.9548C22.5049 24.9548 22.4917 24.9548 22.4752 24.9548H20.9467ZM34.7795 36.5901C35.5767 36.5901 36.2224 37.2122 36.2224 37.9802C36.2224 38.7483 35.5767 39.3704 34.7795 39.3704C33.9823 39.3704 33.3366 38.7483 33.3366 37.9802C33.3366 37.2122 33.9823 36.5901 34.7795 36.5901ZM28.4544 36.5901C29.2516 36.5901 29.8973 37.2122 29.8973 37.9802C29.8973 38.7483 29.2516 39.3704 28.4544 39.3704C27.6572 39.3704 27.0115 38.7483 27.0115 37.9802C27.0115 37.2122 27.6605 36.5901 28.4544 36.5901ZM9.14311 11.0249C8.54684 11.0249 8.06916 10.5583 8.06916 9.99023C8.06916 9.41895 8.55343 8.95557 9.14311 8.95557H25.786C26.3823 8.95557 26.86 9.41895 26.86 9.99023C26.86 10.5615 26.379 11.0249 25.786 11.0249H9.14311ZM3.31216 0.367188H31.5214C32.2099 0.367188 32.8359 0.636963 33.2839 1.0686C33.7319 1.50024 34.0119 2.10327 34.0119 2.7666V21.8032H31.8706V2.77612C31.8706 2.68408 31.8311 2.59839 31.7685 2.53491C31.7026 2.47461 31.6137 2.43652 31.5181 2.43652H3.31216C3.21663 2.43652 3.12768 2.47461 3.06179 2.53491C2.99591 2.59521 2.96296 2.68408 2.96296 2.77612V34.0923C2.96296 34.1843 3.00249 34.27 3.06509 34.3335C3.12768 34.397 3.21663 34.4319 3.31545 34.4319H21.4507C21.6516 35.1904 21.879 35.8538 22.1853 36.4854H3.31216C2.62365 36.4854 1.99773 36.2156 1.5497 35.7839C1.09838 35.3555 0.818359 34.7524 0.818359 34.0891V2.76978C0.818359 2.10645 1.09838 1.50024 1.5464 1.0686C1.99443 0.636963 2.62365 0.367188 3.31216 0.367188ZM9.14311 19.4895C8.54684 19.4895 8.06916 19.0261 8.06916 18.4548C8.06916 17.8835 8.55343 17.4202 9.14311 17.4202H25.786C26.3823 17.4202 26.86 17.8835 26.86 18.4548C26.86 19.0261 26.379 19.4895 25.786 19.4895H9.14311Z" fill="#E31F25"/>
</svg>
