<svg width="31" height="31" viewBox="0 0 31 31" fill="none" xmlns="http://www.w3.org/2000/svg">
<path d="M14.1327 30.2387H16.9364C18.0827 30.2387 18.9805 29.5205 19.2567 28.4156L19.8092 25.9986L20.1682 25.8605L22.2814 27.1726C23.2482 27.7803 24.3945 27.6145 25.2094 26.7997L27.143 24.8661C27.9717 24.0374 28.1098 22.9049 27.5021 21.9519L26.19 19.8387L26.3281 19.5073L28.7451 18.941C29.8362 18.6648 30.5544 17.767 30.5544 16.6207V13.8998C30.5544 12.7535 29.85 11.8557 28.7451 11.5795L26.3419 10.9994L26.2038 10.6403L27.5159 8.54102C28.1236 7.58803 27.9855 6.4555 27.1568 5.613L25.2232 3.67941C24.4222 2.86454 23.2758 2.71261 22.309 3.3065L20.1959 4.60477L19.8092 4.46666L19.2567 2.03585C18.9805 0.930943 18.0827 0.226562 16.9364 0.226562H14.1327C12.9725 0.226562 12.0748 0.930943 11.8124 2.03585L11.2599 4.46666L10.8732 4.60477L8.76005 3.3065C7.77944 2.71261 6.6469 2.86454 5.84584 3.67941L3.89844 5.613C3.08357 6.4555 2.93164 7.58803 3.53934 8.54102L4.85142 10.6403L4.71331 10.9994L2.32394 11.5795C1.21903 11.8557 0.514648 12.7535 0.514648 13.8998V16.6207C0.514648 17.767 1.23284 18.6648 2.32394 18.941L4.74093 19.5073L4.86523 19.8387L3.55315 21.9519C2.94545 22.9049 3.09738 24.0374 3.91225 24.8661L5.85965 26.7997C6.66071 27.6145 7.80706 27.7803 8.77386 27.1726L10.887 25.8605L11.2599 25.9986L11.8124 28.4156C12.0748 29.5205 12.9725 30.2387 14.1327 30.2387ZM14.4918 27.6974C14.257 27.6974 14.1327 27.6007 14.1051 27.3936L13.2764 23.996C12.4063 23.7888 11.5638 23.4297 10.887 23.0015L7.90374 24.8384C7.72419 24.9489 7.55845 24.9351 7.39272 24.7694L5.94252 23.3192C5.77679 23.1673 5.77679 23.0015 5.88728 22.822L7.72419 19.8387C7.33747 19.1758 6.97838 18.3471 6.77121 17.477L3.35979 16.6621C3.15262 16.6345 3.04213 16.5102 3.04213 16.2754V14.2313C3.04213 13.9827 3.13881 13.886 3.35979 13.8308L6.75739 13.0297C6.96457 12.1044 7.3651 11.248 7.71038 10.6265L5.87347 7.6709C5.76297 7.47754 5.76297 7.3118 5.9149 7.14607L7.37891 5.70968C7.54464 5.55776 7.69657 5.53013 7.90374 5.65444L10.8594 7.46373C11.4809 7.07701 12.4063 6.69029 13.2902 6.46931L14.1051 3.07171C14.1327 2.86454 14.257 2.75405 14.4918 2.75405H16.5773C16.8121 2.75405 16.9226 2.85073 16.964 3.07171L17.7927 6.48312C18.6904 6.7041 19.5053 7.07701 20.1959 7.46373L23.1515 5.65444C23.3587 5.54395 23.5106 5.55776 23.6763 5.72349L25.1403 7.15988C25.3061 7.3118 25.3061 7.47754 25.1818 7.6709L23.3587 10.6265C23.6902 11.248 24.1045 12.1044 24.3117 13.0297L27.7093 13.8308C27.9302 13.886 28.0131 13.9827 28.0131 14.2313V16.2754C28.0131 16.5102 27.9164 16.6345 27.7093 16.6621L24.2979 17.477C24.0907 18.3471 23.7178 19.1896 23.3311 19.8387L25.168 22.8082C25.2785 23.0015 25.2785 23.1535 25.1127 23.3054L23.6625 24.7694C23.4968 24.9351 23.3311 24.9489 23.1515 24.8384L20.1821 23.0015C19.4915 23.4297 18.7042 23.775 17.7927 23.996L16.964 27.3936C16.9226 27.6007 16.8121 27.6974 16.5773 27.6974H14.4918ZM15.5414 20.4741C18.4142 20.4741 20.7759 18.1123 20.7759 15.2257C20.7759 12.3668 18.4142 10.005 15.5414 10.005C12.6549 10.005 10.2793 12.3668 10.2793 15.2257C10.2793 18.1123 12.6549 20.4741 15.5414 20.4741ZM15.5414 18.0847C13.9669 18.0847 12.6825 16.8002 12.6825 15.2257C12.6825 13.6789 13.9807 12.3944 15.5414 12.3944C17.0745 12.3944 18.359 13.6789 18.359 15.2257C18.359 16.7864 17.0745 18.0847 15.5414 18.0847Z" fill="#E31F25"/>
</svg>
