<svg width="32" height="31" viewBox="0 0 32 31" fill="none" xmlns="http://www.w3.org/2000/svg">
<path d="M2.51549 0.819426H13.047C13.2985 0.819318 13.5468 0.874525 13.7738 0.980999C14.0007 1.08747 14.2005 1.24251 14.3585 1.43474C14.484 1.5808 14.5806 1.74855 14.6434 1.92941C14.7105 2.10783 14.7446 2.2966 14.7441 2.48681V12.7879C14.7432 13.0132 14.6964 13.2359 14.6066 13.4431C14.5167 13.6503 14.3856 13.8378 14.221 13.9944C13.9046 14.2916 13.4847 14.4591 13.047 14.4626H2.51549C2.30091 14.4593 2.08902 14.4151 1.89166 14.3323C1.68414 14.2533 1.49485 14.1342 1.33497 13.9821C1.17509 13.83 1.04787 13.6479 0.960817 13.4467C0.866225 13.2396 0.817663 13.015 0.818367 12.7879V2.48681C0.820971 2.08413 0.969917 1.69562 1.23835 1.39131L1.30957 1.32374C1.45544 1.17756 1.6268 1.05824 1.81552 0.971445C2.03538 0.873012 2.27389 0.821213 2.51549 0.819426ZM18.7696 16.5667H29.3084C29.5633 16.5652 29.8152 16.6205 30.0452 16.7284C30.2715 16.8358 30.471 16.9907 30.6298 17.182C30.7522 17.3257 30.8486 17.4889 30.9147 17.6646C30.9818 17.8439 31.0159 18.0334 31.0154 18.2245V28.5256C31.0148 28.7489 30.968 28.9697 30.8778 29.1747C30.7879 29.3815 30.6568 29.5685 30.4922 29.7248C30.3351 29.8736 30.1499 29.9908 29.947 30.0699C29.7476 30.1509 29.534 30.1927 29.3183 30.193H18.7696C18.555 30.1915 18.3425 30.1506 18.1433 30.0723C17.9426 29.994 17.7592 29.8785 17.6029 29.7321C17.4371 29.5758 17.3044 29.3888 17.2124 29.1819C17.12 28.975 17.0723 28.7515 17.0724 28.5256V18.2365C17.0718 18.036 17.1093 17.8371 17.183 17.6502C17.2537 17.4632 17.3577 17.29 17.49 17.1386L17.5587 17.071C17.7052 16.9251 17.8775 16.8065 18.0671 16.7211C18.2871 16.6203 18.5268 16.5677 18.7696 16.5667ZM29.3084 18.2293H18.7696V28.5376C19.6734 28.5376 29.3035 28.5376 29.3133 28.5376C29.3133 27.669 29.3133 18.2341 29.3133 18.2293H29.3084ZM2.51549 16.5667H13.047C13.2985 16.5666 13.5468 16.6218 13.7738 16.7283C14.0007 16.8348 14.2005 16.9898 14.3585 17.182C14.4826 17.3245 14.5792 17.488 14.6434 17.6646C14.7106 17.8439 14.7447 18.0334 14.7441 18.2245V28.5256C14.7436 28.7489 14.6968 28.9697 14.6066 29.1747C14.5185 29.3825 14.3871 29.5699 14.221 29.7248C13.9046 30.022 13.4847 30.1895 13.047 30.193H2.51549C2.30167 30.1917 2.09002 30.1507 1.89166 30.0723C1.68995 29.9946 1.50559 29.8791 1.34887 29.7321C1.183 29.5764 1.05099 29.3892 0.960817 29.1819C0.868182 28.9793 0.819662 28.7598 0.818367 28.5376V18.2365C0.818937 18.0361 0.85638 17.8375 0.928889 17.6502C1.00065 17.4631 1.1054 17.2899 1.23835 17.1386L1.30957 17.071C1.4549 16.9248 1.62642 16.8062 1.81552 16.7211C2.03475 16.6206 2.27355 16.5679 2.51549 16.5667ZM13.047 18.2293H2.51549V28.5376C3.41686 28.5376 13.0494 28.5376 13.0568 28.5376C13.0568 27.669 13.0568 18.2341 13.0568 18.2293H13.047ZM18.7696 0.819426H29.3084C29.5633 0.817948 29.8152 0.873222 30.0452 0.981097C30.2715 1.08853 30.471 1.24337 30.6298 1.43474C30.7534 1.58201 30.8499 1.74943 30.9147 1.92941C30.9818 2.10783 31.0159 2.2966 31.0154 2.48681V12.7879C31.0151 13.012 30.9683 13.2337 30.8778 13.4395C30.7873 13.646 30.6563 13.8329 30.4922 13.9896C30.3291 14.1385 30.1381 14.2549 29.9298 14.3323C29.7301 14.4122 29.5167 14.4539 29.3011 14.4553H18.7696C18.5547 14.4544 18.342 14.4126 18.1433 14.3323C17.9432 14.2539 17.7599 14.1393 17.6029 13.9944C17.4371 13.8382 17.3044 13.6512 17.2124 13.4443C17.1198 13.2366 17.0721 13.0123 17.0724 12.7855V2.48681C17.072 2.28711 17.1095 2.08908 17.183 1.90287C17.2533 1.71567 17.3573 1.54241 17.49 1.39131L17.5587 1.32374C17.7056 1.17768 17.8778 1.05839 18.0671 0.971445C18.2877 0.87268 18.5271 0.820873 18.7696 0.819426ZM29.3084 2.48199H18.7696V12.7952C19.6734 12.7952 29.3035 12.7952 29.3133 12.7952C29.3133 11.9265 29.3133 2.48923 29.3133 2.48681L29.3084 2.48199ZM13.0544 2.48199H2.51549V12.7904C3.41686 12.7904 13.0494 12.7904 13.0568 12.7904C13.0568 11.9217 13.0568 2.4844 13.0568 2.48199H13.0544Z" fill="#333333"/>
</svg>
