<svg width="37" height="36" viewBox="0 0 37 36" fill="none" xmlns="http://www.w3.org/2000/svg">
<path d="M30.4284 4.34391C30.0755 3.99023 29.6613 3.81586 29.1804 3.81586C28.7009 3.81586 28.2804 3.99023 27.9323 4.34391L26.0304 6.24023C25.5206 5.90977 24.9806 5.62148 24.416 5.36344C23.8528 5.10539 23.2763 4.88391 22.6941 4.69195V1.77539C22.6941 1.28391 22.5267 0.869062 22.1843 0.527344C21.8433 0.185625 21.4284 0.0175781 20.9363 0.0175781H17.2758C16.8082 0.0175781 16.4004 0.185625 16.0467 0.527344C15.6987 0.869062 15.5243 1.28391 15.5243 1.77539V4.44516C14.9126 4.5893 14.3184 4.7693 13.7482 4.99219C13.1723 5.21367 12.6267 5.46539 12.1099 5.74805L10.0041 3.67172C9.6743 3.32367 9.27281 3.14367 8.78625 3.14367C8.30602 3.14367 7.89258 3.32367 7.5382 3.67172L4.97672 6.24023C4.62305 6.59391 4.44867 7.00734 4.44867 7.48688C4.44867 7.96781 4.62305 8.38758 4.97672 8.73492L6.87305 10.6376C6.54258 11.1473 6.255 11.6873 5.99695 12.2513C5.7382 12.8152 5.51672 13.3924 5.32477 13.9739H2.40891C1.91672 13.9739 1.50187 14.1412 1.16086 14.483C0.818438 14.8247 0.650391 15.2395 0.650391 15.7317V19.3915C0.650391 19.8591 0.818438 20.2676 1.16086 20.622C1.50187 20.9693 1.91672 21.1437 2.40891 21.1437H5.07797C5.22211 21.7554 5.40211 22.3495 5.625 22.9191C5.84719 23.4956 6.0982 24.0532 6.38086 24.5932L4.30453 26.6632C3.95648 26.9937 3.77648 27.3959 3.77648 27.8817C3.77648 28.3612 3.95648 28.7754 4.30453 29.1298L6.87305 31.7278C7.22672 32.0576 7.64086 32.22 8.12109 32.22C8.60063 32.22 9.02039 32.0576 9.36844 31.7278L11.2704 29.7956C11.7809 30.1254 12.3209 30.413 12.8848 30.6717C13.4487 30.9291 14.0252 31.152 14.6067 31.3432V34.2598C14.6067 34.7513 14.7748 35.1654 15.1158 35.5071C15.4582 35.8495 15.8723 36.0176 16.3645 36.0176H20.0243C20.4926 36.0176 20.9004 35.8495 21.2548 35.5071C21.6021 35.1654 21.7765 34.7513 21.7765 34.2598V31.59C22.3882 31.4459 22.9823 31.2659 23.5519 31.0437C24.1284 30.8215 24.6867 30.5698 25.226 30.2871L27.296 32.3634C27.6265 32.7115 28.0336 32.8915 28.5272 32.8915C29.0236 32.8915 29.4321 32.7115 29.7626 32.3634L32.3606 29.7956C32.6904 29.4405 32.8528 29.0278 32.8528 28.5476C32.8528 28.068 32.6904 27.6476 32.3606 27.2995L30.4284 25.3976C30.7582 24.8878 31.0465 24.3478 31.3045 23.7832C31.5619 23.22 31.7848 22.6427 31.976 22.0613H34.8926C35.3841 22.0613 35.7982 21.8925 36.1399 21.5515C36.4823 21.2098 36.6504 20.7956 36.6504 20.3034V16.643C36.6504 16.1754 36.4823 15.7676 36.1399 15.4132C35.7982 15.0652 35.3841 14.8915 34.8926 14.8915H32.2228C32.0787 14.303 31.8987 13.7152 31.6765 13.1337C31.4543 12.5459 31.2026 11.9939 30.9199 11.4771L32.9963 9.37125C33.3443 9.04148 33.5243 8.63859 33.5243 8.15344C33.5243 7.6732 33.3443 7.25977 32.9963 6.90539L30.4284 4.34391ZM13.512 17.1464L14.3831 15.184H17.6688C17.6273 15.0441 17.5556 14.9077 17.4523 14.7734C17.3475 14.6398 17.2202 14.5238 17.0684 14.426C16.9165 14.3276 16.7477 14.2474 16.56 14.1877C16.3723 14.1258 16.1733 14.0955 15.9652 14.0955H13.512L14.3831 12.1331H23.7888L22.9177 14.0955H20.6459C20.7352 14.1645 20.8181 14.2446 20.8955 14.3367C20.9728 14.426 21.041 14.5181 21.1001 14.6187C21.157 14.7171 21.2077 14.8148 21.2491 14.9133C21.2878 15.011 21.3145 15.1038 21.3265 15.184H23.7888L22.9177 17.1464H21.1359C21.0059 17.4797 20.8125 17.7954 20.553 18.0921C20.295 18.3923 19.9948 18.6574 19.6523 18.8951C19.3071 19.1327 18.9359 19.3296 18.5344 19.4927C18.1415 19.6501 17.7313 19.7598 17.3123 19.8197L22.2546 24.9075H18.3473L13.9402 20.0728V18.2707H15.8906C16.0784 18.2707 16.2626 18.2412 16.444 18.1786C16.6282 18.116 16.7977 18.033 16.9495 17.9283C17.1042 17.8277 17.2378 17.7054 17.351 17.5718C17.4635 17.4347 17.5444 17.2955 17.5915 17.1464H13.512ZM18.6504 6.86461C24.8126 6.86461 29.8041 11.8589 29.8041 18.0176C29.8041 24.1798 24.8091 29.1712 18.6504 29.1712C12.4889 29.1712 7.49742 24.1763 7.49742 18.0176C7.49742 11.8554 12.4917 6.86461 18.6504 6.86461Z" fill="#E31F25"/>
</svg>
