<svg width="32" height="34" viewBox="0 0 32 34" fill="none" xmlns="http://www.w3.org/2000/svg">
<path d="M19.2192 32.0134H2.03464C1.49749 32.0121 0.982704 31.8007 0.60282 31.4253L0.551198 31.3635C0.206569 30.9988 0.0126954 30.5198 0.0078125 30.0208L0.0078125 2.78662C0.00802254 2.52364 0.0606821 2.26328 0.162779 2.02043C0.264876 1.77758 0.414408 1.55701 0.60282 1.37134L0.66531 1.32031C1.03411 0.97944 1.51888 0.787769 2.02377 0.783203L24.971 0.783203C25.5081 0.784621 26.0228 0.99615 26.4026 1.37156C26.7824 1.74696 26.9964 2.25572 26.9978 2.78662V18.677C26.998 18.7338 26.9926 18.7905 26.9815 18.8462C28.0418 19.2443 29.0016 19.8659 29.7943 20.6678C30.587 21.4697 31.1935 22.4325 31.5717 23.4895C31.9499 24.5465 32.0907 25.6721 31.9842 26.7883C31.8778 27.9045 31.5267 28.9844 30.9554 29.9529C30.3841 30.9214 29.6063 31.7553 28.676 32.3967C27.7457 33.038 26.6853 33.4714 25.5684 33.6667C24.4515 33.8621 23.305 33.8146 22.2086 33.5277C21.1121 33.2408 20.092 32.7213 19.2192 32.0054V32.0134ZM23.1506 22.8369H23.9358C24.008 22.8365 24.0795 22.8503 24.1462 22.8775C24.2129 22.9047 24.2735 22.9448 24.3243 22.9954C24.4279 23.0982 24.4864 23.237 24.4874 23.3821V26.2341H27.0929C27.237 26.2341 27.3752 26.2907 27.4771 26.3914C27.579 26.4922 27.6363 26.6288 27.6363 26.7712V27.5769C27.6336 27.7216 27.5753 27.8599 27.4733 27.9636L27.4515 27.9824C27.3512 28.0726 27.2203 28.1224 27.0847 28.1221H22.83C22.758 28.1221 22.6889 28.0938 22.6379 28.0434C22.587 27.993 22.5583 27.9247 22.5583 27.8535V23.3418C22.5671 23.2108 22.6242 23.0876 22.7186 22.9954C22.7693 22.9443 22.8297 22.9037 22.8964 22.8761C22.9632 22.8484 23.0348 22.8342 23.1071 22.8342L23.1506 22.8369ZM25.2562 18.4138V2.78662C25.2497 2.71528 25.2172 2.64871 25.1647 2.59931C25.1122 2.5499 25.0434 2.52103 24.971 2.51807H2.03464C1.9696 2.51844 1.90652 2.54017 1.85532 2.57983L1.83359 2.60132C1.78026 2.6541 1.75001 2.72546 1.74936 2.80005V30.0127C1.7486 30.0764 1.77075 30.1382 1.81185 30.1873L1.83631 30.2087C1.86164 30.2357 1.89232 30.2573 1.92644 30.2721C1.96056 30.2869 1.99739 30.2946 2.03464 30.2947H17.6679C16.8963 29.131 16.4571 27.7829 16.3968 26.3928C16.3366 25.0028 16.6574 23.6225 17.3255 22.3978C17.9935 21.1732 18.9839 20.1497 20.192 19.4357C21.4001 18.7216 22.7809 18.3435 24.1885 18.3413C24.543 18.341 24.897 18.3653 25.2481 18.4138H25.2562ZM28.6144 21.6956C27.5936 20.6833 26.2494 20.0523 24.8107 19.91C23.372 19.7677 21.9278 20.1229 20.7244 20.9152C19.521 21.7075 18.6328 22.8877 18.2112 24.2548C17.7895 25.6218 17.8605 27.0911 18.4121 28.4123C18.9636 29.7334 19.9616 30.8246 21.2359 31.4998C22.5102 32.1751 23.982 32.3927 25.4005 32.1155C26.8189 31.8383 28.0962 31.0835 29.0147 29.9797C29.9332 28.8759 30.436 27.4914 30.4374 26.0623C30.4387 25.2512 30.2779 24.4479 29.9641 23.6985C29.6503 22.9492 29.1897 22.2684 28.6089 21.6956H28.6144ZM5.65631 20.6804H8.10155C8.14433 20.6793 8.1869 20.6867 8.22674 20.7022C8.26658 20.7176 8.30289 20.7408 8.33353 20.7703C8.36417 20.7999 8.38852 20.8352 8.40514 20.8742C8.42175 20.9131 8.43031 20.955 8.43029 20.9973V23.4143C8.43029 23.4984 8.39652 23.579 8.33639 23.6384C8.27627 23.6978 8.19473 23.7312 8.1097 23.7312H5.66446C5.57943 23.7312 5.49789 23.6978 5.43776 23.6384C5.37764 23.579 5.34386 23.4984 5.34386 23.4143V20.9973C5.34386 20.9557 5.35216 20.9145 5.36827 20.876C5.38438 20.8376 5.40799 20.8027 5.43776 20.7732C5.46753 20.7438 5.50288 20.7205 5.54177 20.7045C5.58067 20.6886 5.62236 20.6804 5.66446 20.6804H5.65631ZM11.6336 23.1726C11.4054 23.1312 11.1992 23.0121 11.0507 22.8359C10.9023 22.6598 10.8209 22.4378 10.8209 22.2085C10.8209 21.9792 10.9023 21.7572 11.0507 21.5811C11.1992 21.4049 11.4054 21.2858 11.6336 21.2444H14.2364C14.4645 21.2858 14.6707 21.4049 14.8192 21.5811C14.9677 21.7572 15.049 21.9792 15.049 22.2085C15.049 22.4378 14.9677 22.6598 14.8192 22.8359C14.6707 23.0121 14.4645 23.1312 14.2364 23.1726H11.6336ZM5.65631 6.73169H8.10155C8.14433 6.73061 8.1869 6.73802 8.22674 6.75346C8.26658 6.7689 8.30289 6.79207 8.33353 6.82161C8.36417 6.85114 8.38852 6.88644 8.40514 6.92542C8.42175 6.96441 8.43031 7.00628 8.43029 7.04858V9.46558C8.43029 9.54962 8.39652 9.63023 8.33639 9.68965C8.27627 9.74908 8.19473 9.78247 8.1097 9.78247H5.66446C5.57943 9.78247 5.49789 9.74908 5.43776 9.68965C5.37764 9.63023 5.34386 9.54962 5.34386 9.46558V7.04858C5.34386 6.96454 5.37764 6.88393 5.43776 6.82451C5.49789 6.76508 5.57943 6.73169 5.66446 6.73169H5.65631ZM11.6336 9.22119C11.3973 9.19868 11.1794 9.08527 11.0269 8.90542C10.8744 8.72556 10.7996 8.49368 10.8185 8.25977C10.7995 8.02557 10.8743 7.79337 11.0267 7.61308C11.1791 7.4328 11.397 7.31882 11.6336 7.29565H21.2678C21.5043 7.31882 21.7222 7.4328 21.8746 7.61308C22.027 7.79337 22.1018 8.02557 22.0829 8.25977C22.1018 8.49368 22.0269 8.72556 21.8745 8.90542C21.722 9.08527 21.5041 9.19868 21.2678 9.22119H11.6336ZM4.99066 15.312C4.94671 15.2557 4.9145 15.1914 4.89589 15.1228C4.87728 15.0541 4.87264 14.9825 4.88224 14.912C4.89185 14.8416 4.9155 14.7737 4.95183 14.7124C4.98817 14.651 5.03646 14.5974 5.0939 14.5547C5.20236 14.4511 5.34598 14.3912 5.49672 14.3868C5.64745 14.3823 5.79445 14.4336 5.90898 14.5305L6.47954 15.1133L7.90593 13.6738C7.96038 13.6267 8.02411 13.5912 8.09311 13.5696C8.16211 13.548 8.23488 13.5408 8.30685 13.5484C8.37882 13.5559 8.44843 13.5781 8.51129 13.6136C8.57415 13.6491 8.6289 13.697 8.6721 13.7544C8.78039 13.8585 8.84544 13.9988 8.85449 14.1479C8.86353 14.2969 8.81593 14.4439 8.72101 14.5601L6.81916 16.4775C6.76453 16.5243 6.70077 16.5594 6.63182 16.5808C6.56287 16.6022 6.49022 16.6093 6.41836 16.6018C6.34651 16.5942 6.277 16.5721 6.21414 16.5369C6.15129 16.5017 6.09643 16.454 6.05298 16.397L6.00951 16.3459C5.97905 16.3256 5.95082 16.3022 5.92529 16.2761L4.99066 15.312ZM11.62 16.0344C11.3834 16.0113 11.1655 15.8973 11.0131 15.717C10.8607 15.5367 10.7859 15.3045 10.8049 15.0703C10.7859 14.8361 10.8607 14.6039 11.0131 14.4236C11.1655 14.2433 11.3834 14.1294 11.62 14.1062H21.2678C21.5043 14.1294 21.7222 14.2433 21.8746 14.4236C22.027 14.6039 22.1018 14.8361 22.0829 15.0703C22.1018 15.3045 22.027 15.5367 21.8746 15.717C21.7222 15.8973 21.5043 16.0113 21.2678 16.0344H11.62Z" fill="#E31F25"/>
</svg>
