<svg width="29" height="33" viewBox="0 0 29 33" fill="none" xmlns="http://www.w3.org/2000/svg">
<path fill-rule="evenodd" clip-rule="evenodd" d="M15.9233 19.1309C15.853 19.1829 15.768 19.2124 15.68 19.2152C15.592 19.218 15.5053 19.194 15.4317 19.1465C13.8078 18.139 12.3659 16.8716 11.1655 15.3965C9.69607 13.6371 8.70789 11.5367 8.2949 9.29492C7.95392 7.21419 8.27904 5.21419 9.33635 3.58659C9.76321 2.92544 10.2992 2.33924 10.9223 1.85221C12.2856 0.730793 13.9994 0.106347 15.7753 0.0839844C17.495 0.111318 19.1418 0.772921 20.3904 1.93815C20.87 2.37128 21.2847 2.86931 21.6222 3.41732C22.7509 5.24023 22.994 7.58398 22.4971 9.95898C22.0808 11.8436 21.2843 13.6267 20.1551 15.2022C19.0258 16.7778 17.5868 18.1138 15.9233 19.1309ZM10.9012 19.3236V26.5684L18.8706 29.9538V20.623C19.4709 20.1717 20.0404 19.6819 20.5755 19.1569V29.8809L27.1836 26.6022V12.0189L24.6434 12.9824C24.8986 12.3189 25.1087 11.6395 25.2725 10.9486L27.7308 10.0137C27.9405 9.93825 28.1719 9.94702 28.3751 10.0381C28.5783 10.1292 28.7371 10.2953 28.8171 10.5007C28.8555 10.5969 28.8752 10.6993 28.8753 10.8027V27.1309C28.876 27.2981 28.8261 27.4618 28.7319 27.6009C28.6377 27.7401 28.5036 27.8484 28.3466 27.9121L20.0997 31.9928C19.9801 32.0526 19.8479 32.0837 19.7138 32.0837C19.5797 32.0837 19.4475 32.0526 19.3279 31.9928L10.0765 28.0423L2.11497 31.9928C2.01519 32.0427 1.90642 32.0726 1.79487 32.081C1.68333 32.0894 1.5712 32.0761 1.4649 32.0417C1.3586 32.0074 1.26021 31.9527 1.17537 31.8809C1.09053 31.809 1.02089 31.7214 0.970444 31.623C0.910579 31.5059 0.878923 31.3766 0.87793 31.2454V13.9486C0.877882 13.7668 0.937605 13.5899 1.04816 13.4444C1.15871 13.2988 1.31413 13.1925 1.49116 13.1413L5.82082 11.4954C5.98158 12.0323 6.17218 12.56 6.39176 13.0762L2.58547 14.5215V29.8861L9.19361 26.6074V17.5553C9.72547 18.1787 10.2957 18.7692 10.9012 19.3236ZM15.4555 3.78451C16.1727 3.78451 16.8739 3.99405 17.4703 4.38665C18.0667 4.77925 18.5315 5.33726 18.806 5.99013C19.0805 6.64299 19.1523 7.36139 19.0123 8.05446C18.8724 8.74754 18.527 9.38417 18.0198 9.88386C17.5127 10.3835 16.8665 10.7238 16.163 10.8617C15.4595 10.9995 14.7303 10.9288 14.0677 10.6584C13.405 10.3879 12.8386 9.92999 12.4401 9.34243C12.0416 8.75487 11.8289 8.06408 11.8289 7.35742C11.8289 6.40983 12.211 5.50104 12.8911 4.83099C13.5712 4.16094 14.4937 3.78451 15.4555 3.78451Z" fill="#E31F25"/>
</svg>
