<svg width="43" height="32" viewBox="0 0 43 32" fill="none" xmlns="http://www.w3.org/2000/svg">
<path d="M0.198242 31.6732V26.1898C0.198242 25.0801 0.477756 24.0602 1.03678 23.1299C1.59581 22.1997 2.33852 21.4898 3.26491 21.0003C5.24546 19.9885 7.25796 19.2296 9.30241 18.7237C11.3469 18.2178 13.4232 17.9648 15.5316 17.9648C17.6399 17.9648 19.7163 18.2178 21.7607 18.7237C23.8052 19.2296 25.8177 19.9885 27.7982 21.0003C28.7246 21.4898 29.4673 22.1997 30.0264 23.1299C30.5854 24.0602 30.8649 25.0801 30.8649 26.1898V31.6732H0.198242ZM34.6982 31.6732V25.7982C34.6982 24.3621 34.3069 22.9831 33.5243 21.6612C32.7416 20.3393 31.6316 19.2051 30.1941 18.2586C31.8232 18.4544 33.3566 18.789 34.7941 19.2622C36.2316 19.7355 37.5732 20.3148 38.8191 21.0003C39.9691 21.653 40.8475 22.3793 41.4545 23.1789C42.0614 23.9786 42.3649 24.8516 42.3649 25.7982V31.6732H34.6982ZM15.5316 16.0065C13.4232 16.0065 11.6184 15.2395 10.117 13.7055C8.6156 12.1714 7.86491 10.3273 7.86491 8.17318C7.86491 6.01901 8.6156 4.17491 10.117 2.64089C11.6184 1.10686 13.4232 0.339844 15.5316 0.339844C17.6399 0.339844 19.4448 1.10686 20.9462 2.64089C22.4475 4.17491 23.1982 6.01901 23.1982 8.17318C23.1982 10.3273 22.4475 12.1714 20.9462 13.7055C19.4448 15.2395 17.6399 16.0065 15.5316 16.0065ZM34.6982 8.17318C34.6982 10.3273 33.9475 12.1714 32.4462 13.7055C30.9448 15.2395 29.1399 16.0065 27.0316 16.0065C26.6802 16.0065 26.233 15.9657 25.6899 15.8841C25.1469 15.8025 24.6996 15.7128 24.3482 15.6148C25.2107 14.5704 25.8736 13.4117 26.3368 12.1388C26.8 10.8659 27.0316 9.54401 27.0316 8.17318C27.0316 6.80234 26.8 5.48047 26.3368 4.20755C25.8736 2.93464 25.2107 1.77595 24.3482 0.73151C24.7955 0.568316 25.2427 0.46224 25.6899 0.413281C26.1371 0.364323 26.5844 0.339844 27.0316 0.339844C29.1399 0.339844 30.9448 1.10686 32.4462 2.64089C33.9475 4.17491 34.6982 6.01901 34.6982 8.17318ZM4.03158 27.7565H27.0316V26.1898C27.0316 25.8308 26.9437 25.5044 26.768 25.2107C26.5923 24.9169 26.3607 24.6885 26.0732 24.5253C24.3482 23.644 22.6073 22.9831 20.8503 22.5424C19.0934 22.1018 17.3205 21.8815 15.5316 21.8815C13.7427 21.8815 11.9698 22.1018 10.2128 22.5424C8.45588 22.9831 6.71491 23.644 4.98991 24.5253C4.70241 24.6885 4.47081 24.9169 4.29512 25.2107C4.11942 25.5044 4.03158 25.8308 4.03158 26.1898V27.7565ZM15.5316 12.0898C16.5857 12.0898 17.4882 11.7063 18.2389 10.9393C18.9896 10.1723 19.3649 9.25026 19.3649 8.17318C19.3649 7.09609 18.9896 6.17405 18.2389 5.40703C17.4882 4.64002 16.5857 4.25651 15.5316 4.25651C14.4774 4.25651 13.575 4.64002 12.8243 5.40703C12.0736 6.17405 11.6982 7.09609 11.6982 8.17318C11.6982 9.25026 12.0736 10.1723 12.8243 10.9393C13.575 11.7063 14.4774 12.0898 15.5316 12.0898Z" fill="#E31F25"/>
</svg>
