<svg width="34" height="35" viewBox="0 0 34 35" fill="none" xmlns="http://www.w3.org/2000/svg">
<g clip-path="url(#clip0_1763_291691)">
<path fill-rule="evenodd" clip-rule="evenodd" d="M21.6848 14.6906H25.7758C26.0624 14.6906 26.2969 14.9283 26.2969 15.2158V17.9906C24.7272 18.0085 23.2524 18.4361 21.9713 19.1718H21.6848C21.3995 19.1718 21.1637 18.9354 21.1637 18.6466V15.2158C21.1637 14.927 21.3982 14.6906 21.6848 14.6906ZM3.30949 3.05054H5.9429V6.59283C5.9429 7.5775 6.39739 8.44797 7.13051 9.05351C7.75033 9.56543 8.57434 9.88281 9.45566 9.88281C10.3357 9.88281 11.161 9.56543 11.7801 9.05351C12.5133 8.44797 12.9678 7.5775 12.9678 6.59283V3.05054H18.286V6.59283C18.286 7.5775 18.7398 8.44797 19.4729 9.05351C20.0927 9.56543 20.9167 9.88281 21.7981 9.88281C22.6787 9.88281 23.5034 9.56543 24.1225 9.05351C24.8563 8.44797 25.3101 7.5775 25.3101 6.59283V3.05054H28.0595C28.8433 3.05054 29.5573 3.37522 30.0757 3.89711C30.5941 4.41766 30.9155 5.1374 30.9155 5.92886V19.2222C30.6204 19.0483 30.3155 18.8909 30.0006 18.7515V11.3841H1.36901V28.4335C1.36901 29.6778 2.37943 30.697 3.61446 30.697H18.1839C18.3235 31.0137 18.4809 31.3218 18.6548 31.6186H3.30949C2.52632 31.6186 1.81296 31.2946 1.29524 30.7733C0.775539 30.2488 0.454102 29.5297 0.454102 28.7409V5.92886C0.454102 5.13873 0.775539 4.41965 1.2926 3.89777C1.81165 3.37456 2.52566 3.05054 3.30949 3.05054ZM8.07638 1.29367C8.07638 0.664891 8.69356 0.154297 9.45566 0.154297C10.2178 0.154297 10.8343 0.664891 10.8343 1.29367V6.59283C10.8343 7.22095 10.2178 7.73221 9.45566 7.73221C8.69356 7.73221 8.07638 7.22095 8.07638 6.59283V1.29367ZM20.4194 1.29367C20.4194 0.664891 21.036 0.154297 21.7981 0.154297C22.5601 0.154297 23.1767 0.664891 23.1767 1.29367V6.59283C23.1767 7.22095 22.5601 7.73221 21.7981 7.73221C21.036 7.73221 20.4194 7.22095 20.4194 6.59283V1.29367ZM5.5938 14.6906H9.68488C9.97141 14.6906 10.2059 14.9283 10.2059 15.2158V18.6466C10.2059 18.9341 9.97009 19.1718 9.68488 19.1718H5.5938C5.30793 19.1718 5.07213 18.9354 5.07213 18.6466V15.2158C5.07213 14.927 5.30727 14.6906 5.5938 14.6906ZM5.5938 21.987H9.68488C9.97141 21.987 10.2059 22.2247 10.2059 22.5122V25.943C10.2059 26.2305 9.97009 26.4682 9.68488 26.4682H5.5938C5.30793 26.4682 5.07213 26.2318 5.07213 25.943V22.5122C5.07213 22.2234 5.30727 21.987 5.5938 21.987ZM13.6818 14.6906H17.7728C18.0594 14.6906 18.2939 14.9283 18.2939 15.2158V18.6466C18.2939 18.9341 18.0581 19.1718 17.7728 19.1718H13.6818C13.3966 19.1718 13.1607 18.9354 13.1607 18.6466V15.2158C13.1607 14.927 13.3952 14.6906 13.6818 14.6906ZM13.6818 21.987H17.7728C18.0594 21.987 18.2939 22.2247 18.2939 22.5122V23.1503C17.7996 24.1906 17.5085 25.317 17.4363 26.4682H13.6818C13.3966 26.4682 13.1607 26.2318 13.1607 25.943V22.5122C13.1607 22.2234 13.3952 21.987 13.6818 21.987Z" fill="#E31F25"/>
<path fill-rule="evenodd" clip-rule="evenodd" d="M26.4005 19.9336C30.296 19.9336 33.455 23.118 33.455 27.0447C33.455 30.9708 30.296 34.1552 26.4005 34.1552C22.5057 34.1552 19.3467 30.9708 19.3467 27.0447C19.3467 23.118 22.5057 19.9336 26.4005 19.9336ZM24.3632 26.0388L25.5179 27.1384L28.2784 24.2733C28.505 24.0429 28.6466 23.8563 28.9252 24.1458L29.8296 25.0807C30.1273 25.3762 30.1122 25.5508 29.8322 25.8263L26.0349 29.6369C25.4434 30.2205 25.5469 30.2564 24.9481 29.6575L22.8403 27.5447C22.7158 27.4093 22.7284 27.2711 22.866 27.1357L23.916 26.0375C24.0754 25.8682 24.2018 25.8828 24.3632 26.0388Z" fill="#10A64A"/>
</g>
<defs>
<clipPath id="clip0_1763_291691">
<rect width="33" height="34" fill="white" transform="translate(0.454102 0.154297)"/>
</clipPath>
</defs>
</svg>
