<svg width="58" height="49" viewBox="0 0 58 49" fill="none" xmlns="http://www.w3.org/2000/svg">
<path fill-rule="evenodd" clip-rule="evenodd" d="M28.6585 22.6216C35.7067 22.6216 41.4223 28.4149 41.4223 35.5614C41.4223 42.708 35.7067 48.5002 28.6585 48.5002C21.6092 48.5002 15.8947 42.708 15.8947 35.5614C15.8947 28.4149 21.6092 22.6216 28.6585 22.6216ZM40.2132 14.5743C39.8648 14.7493 39.5119 14.9411 39.1645 15.1443C38.1214 15.7639 37.0905 16.5224 36.0384 17.3926L33.7929 14.7865C34.5678 14.0585 35.4072 13.3949 36.2978 12.808C37.007 12.3374 37.7495 11.9186 38.5155 11.5609C38.8216 11.4051 39.1278 11.2595 39.4428 11.1241C37.9633 8.46613 35.8336 6.56211 33.4211 5.3872C28.6273 3.05994 22.6579 3.56557 18.4352 6.89055C16.0094 8.79569 14.168 11.6455 13.4577 15.4219L13.2351 16.6014L12.0751 16.809C10.9384 17.0111 9.92419 17.2887 9.03245 17.6409C8.16966 17.9806 7.40038 18.3993 6.72796 18.8925C6.18913 19.2875 5.7249 19.73 5.33191 20.2085C4.11064 21.6904 3.54509 23.547 3.55845 25.4296C3.57292 27.337 4.18523 29.2659 5.31743 30.8505C5.73937 31.4385 6.22587 31.9802 6.78251 32.4498C7.34917 32.9238 7.98374 33.3188 8.69847 33.6168C9.40763 33.9125 10.1925 34.1235 11.0597 34.2466H12.3222C12.232 35.3978 12.2599 36.5614 12.4068 37.707H11.0041L10.7903 37.6889C9.55236 37.5286 8.42906 37.2318 7.40929 36.8052C6.35613 36.3616 5.4232 35.7928 4.60271 35.0976C3.82341 34.4384 3.14208 33.6913 2.56206 32.8775C1.01238 30.715 0.177414 28.0718 0.158488 25.4375C0.140676 22.7762 0.956711 20.1295 2.72015 17.984C3.29015 17.2887 3.96146 16.6488 4.73185 16.0845C5.62804 15.4265 6.65226 14.8712 7.81341 14.4163C8.61052 14.1003 9.46329 13.8362 10.3639 13.6252C11.3848 9.51577 13.5602 6.35106 16.3567 4.15359C21.5969 0.0374362 28.9491 -0.619433 34.8973 2.27779C38.1481 3.86353 40.987 6.50117 42.8294 10.211C43.5709 10.0936 44.3134 10.0327 45.0504 10.0417C52.761 10.1004 57.2364 16.7605 57.1574 24.0414C57.1251 27.0086 56.3369 29.9622 54.7215 32.1349C53.6695 33.5502 52.3191 34.707 50.7003 35.6235C49.1429 36.5084 47.3238 37.181 45.2831 37.6607L44.9113 37.7058C45.0605 36.5298 45.0827 35.3583 44.9892 34.1766C46.5133 33.7827 47.867 33.2658 49.026 32.61C50.2461 31.9182 51.2436 31.0762 51.9895 30.0661C53.1496 28.4995 53.7207 26.2851 53.7429 24.0132C53.8064 18.6837 50.7939 13.5303 45.0271 13.4942C43.4362 13.4796 41.7807 13.8701 40.2132 14.5743ZM30.3028 41.8525H27.0119C26.3607 41.8525 25.8274 41.313 25.8274 40.6527V37.0219H23.3615C22.9552 37.005 22.6679 36.8684 22.5009 36.6111C22.0489 35.9249 22.6657 35.2465 23.0943 34.768C24.3078 33.4181 27.2836 30.171 27.8836 29.4566C28.3368 28.9465 28.9836 28.9465 29.4367 29.4566C30.0568 30.1891 33.1818 33.584 34.3362 34.8978C34.7359 35.3549 35.2313 35.9779 34.8138 36.6111C34.6446 36.8684 34.3585 37.005 33.9521 37.0219H31.4885V40.6527C31.4885 41.3119 30.9552 41.8525 30.3028 41.8525Z" fill="#333333"/>
</svg>
