<svg width="15" height="21" viewBox="0 0 15 21" fill="none" xmlns="http://www.w3.org/2000/svg">
<path d="M7.5 14.7992C9.15 13.4659 10.3958 12.1826 11.2375 10.9492C12.0792 9.71592 12.5 8.55758 12.5 7.47425C12.5 5.97425 12.0333 4.74092 11.1 3.77425C10.1667 2.80758 8.96667 2.32425 7.5 2.32425C6.03333 2.32425 4.83333 2.80758 3.9 3.77425C2.96667 4.74092 2.5 5.97425 2.5 7.47425C2.5 8.55758 2.92083 9.71592 3.7625 10.9492C4.60417 12.1826 5.85 13.4659 7.5 14.7992ZM7.5 17.3242C5.15 15.5909 3.39583 13.9076 2.2375 12.2742C1.07917 10.6409 0.5 9.04092 0.5 7.47425C0.5 5.39092 1.15 3.67842 2.45 2.33675C3.75 0.995083 5.43333 0.324249 7.5 0.324249C9.56667 0.324249 11.25 0.995083 12.55 2.33675C13.85 3.67842 14.5 5.39092 14.5 7.47425C14.5 9.04092 13.9208 10.6409 12.7625 12.2742C11.6042 13.9076 9.85 15.5909 7.5 17.3242ZM7.5 9.32425C8.05 9.32425 8.52083 9.12842 8.9125 8.73675C9.30417 8.34508 9.5 7.87425 9.5 7.32425C9.5 6.77425 9.30417 6.30342 8.9125 5.91175C8.52083 5.52008 8.05 5.32425 7.5 5.32425C6.95 5.32425 6.47917 5.52008 6.0875 5.91175C5.69583 6.30342 5.5 6.77425 5.5 7.32425C5.5 7.87425 5.69583 8.34508 6.0875 8.73675C6.47917 9.12842 6.95 9.32425 7.5 9.32425ZM0.5 20.3242V18.3242H14.5V20.3242H0.5Z" fill="#AAAAAA"/>
</svg>
