<svg width="19" height="20" viewBox="0 0 19 20" fill="none" xmlns="http://www.w3.org/2000/svg">
<path d="M7.23389 18.2487H8.45703V12.6797H1.61328C1.31006 12.6797 1.03174 12.5466 0.82959 12.3304L0.828125 12.3289L0.82666 12.3273L0.825195 12.3257C0.624512 12.108 0.5 11.812 0.5 11.4894V3.87972C0.5 3.55554 0.624512 3.25798 0.82666 3.04186L0.828125 3.04029L0.82959 3.03872L0.831055 3.03716C1.0332 2.8226 1.31006 2.68948 1.61328 2.68948H2.73096V1.612C2.73096 1.17662 3.06055 0.824249 3.46777 0.824249C3.875 0.824249 4.20459 1.17662 4.20459 1.612V2.68948H8.84375V1.612C8.84228 1.17662 9.17187 0.824249 9.5791 0.824249C9.98633 0.824249 10.3159 1.17662 10.3159 1.612V2.68948H14.9551V1.612C14.9551 1.17662 15.2847 0.824249 15.6919 0.824249C16.0991 0.824249 16.4287 1.17662 16.4287 1.612V2.68948H17.3882C17.6914 2.68948 17.9697 2.8226 18.1719 3.03872L18.1733 3.04029L18.1748 3.04186L18.1763 3.04342C18.377 3.25954 18.5015 3.55554 18.5015 3.87972V11.4894C18.5015 11.8136 18.377 12.1112 18.1748 12.3273L18.1733 12.3289L18.1719 12.3304L18.1704 12.332C17.9683 12.5466 17.6914 12.6797 17.3882 12.6797H10.5093V18.2503H11.7324V19.8258H7.23389V18.2487ZM17.0264 4.26498H15.6904H9.5791H3.46631H1.97217V11.1042H17.0249V4.26498H17.0264Z" fill="#AAAAAA"/>
</svg>
