<svg width="16" height="16" viewBox="0 0 16 16" fill="none" xmlns="http://www.w3.org/2000/svg">
<path fill-rule="evenodd" clip-rule="evenodd" d="M15.4458 2.24573V3.53235C15.4458 3.68982 15.2973 3.81921 15.1157 3.81921H9.99951C9.65099 4.54187 8.90854 5.04114 8.04827 5.04114C7.18924 5.04114 6.44678 4.54187 6.09826 3.81921H0.775916C0.595519 3.81921 0.445801 3.68982 0.445801 3.53235V2.24573C0.445801 2.08826 0.594291 1.95886 0.775916 1.95886H6.09826C6.44678 1.23621 7.18924 0.738159 8.04827 0.738159C8.90731 0.738159 9.64976 1.23743 9.99828 1.95886H15.1145C15.2973 1.95886 15.4458 2.08826 15.4458 2.24573ZM6.529 14.5175C6.18048 15.2401 5.43803 15.7382 4.57776 15.7382C3.71873 15.7382 2.97628 15.2401 2.62775 14.5175H0.775916C0.594291 14.5175 0.445801 14.3881 0.445801 14.2306V12.944C0.445801 12.7865 0.594291 12.6571 0.775916 12.6571H2.62775C2.97628 11.9344 3.71873 11.4352 4.57776 11.4352C5.4368 11.4352 6.17925 11.9344 6.52778 12.6571H15.1145C15.2961 12.6571 15.4446 12.7865 15.4446 12.944V14.2306C15.4446 14.3881 15.2949 14.5175 15.1145 14.5175H6.529ZM13.2234 9.25012C12.8748 9.97278 12.1324 10.472 11.2733 10.472C10.4143 10.472 9.67185 9.97278 9.3221 9.25012H0.775916C0.595519 9.25012 0.445801 9.12073 0.445801 8.96326V7.67786C0.445801 7.52039 0.594291 7.39099 0.775916 7.39099H9.3221C9.67062 6.66833 10.4131 6.17029 11.2721 6.17029C12.1311 6.17029 12.8736 6.66956 13.2221 7.39099H15.1145C15.2961 7.39099 15.4446 7.52039 15.4446 7.67786V8.96326C15.4446 9.12073 15.2961 9.25012 15.1145 9.25012H13.2234Z" fill="#333333"/>
</svg>
