<svg width="16" height="19" viewBox="0 0 16 19" fill="none" xmlns="http://www.w3.org/2000/svg">
<path d="M14.2693 7.37067C14.2232 8.58206 13.8744 9.76588 13.2509 10.8251C12.6669 11.8162 11.9977 12.7602 11.2501 13.6476C10.3697 14.6933 9.54552 15.7804 8.78101 16.9047C8.56625 17.2371 8.3696 17.5796 8.16845 17.9199C8.13898 17.9799 8.09173 18.0306 8.03221 18.0655C7.97269 18.1004 7.90359 18.1182 7.83356 18.1165C7.76603 18.1178 7.69954 18.1005 7.6423 18.0666C7.58506 18.0326 7.53938 17.9836 7.51122 17.9256C6.729 16.5755 5.83208 15.2878 4.82913 14.0751C4.05008 13.1276 3.32882 12.139 2.66876 11.1139C2.11738 10.25 1.72782 9.30272 1.51713 8.31361C1.23238 6.76723 1.59166 5.17669 2.51959 3.8751C3.44752 2.5735 4.87211 1.66185 6.4951 1.33111C7.34019 1.16362 8.21212 1.15923 9.05904 1.31824C9.90595 1.47725 10.7103 1.79639 11.4236 2.25647C12.1369 2.71655 12.7444 3.30807 13.2099 3.99561C13.6754 4.68316 13.9894 5.45253 14.1326 6.25755C14.2045 6.62358 14.2254 6.99891 14.2693 7.37067ZM4.56919 7.25839C4.57036 8.07541 4.91256 8.85898 5.52144 9.43877C6.13031 10.0186 6.95648 10.3477 7.82064 10.3547C8.68771 10.3564 9.52037 10.0336 10.1365 9.45675C10.7525 8.87992 11.102 8.09601 11.1086 7.27628C11.0986 6.60839 10.8653 5.96061 10.4422 5.42565C10.0191 4.89069 9.42772 4.49596 8.75295 4.29796C8.45529 4.2099 8.14464 4.16815 7.83282 4.1743C6.9683 4.17675 6.13991 4.50243 5.52845 5.08024C4.917 5.65805 4.57218 6.44106 4.56919 7.25839Z" stroke="#1B1C20" stroke-width="1.5" stroke-miterlimit="10"/>
</svg>
