<svg width="24" height="24" viewBox="0 0 24 24" fill="none" xmlns="http://www.w3.org/2000/svg">
<path d="M2.26878 19.7549H7.08532C7.16716 21.8934 8.9909 23.8744 11.6798 23.8744C14.3569 23.8744 16.1923 21.9159 16.2859 19.7549H21.0907C22.3065 19.7549 23.0548 19.1133 23.0548 18.1454C23.0548 16.9411 21.9208 15.9168 20.8569 14.9376C20.0269 14.161 19.8281 12.6077 19.6762 11.0207C19.5125 6.77747 18.2148 3.94112 15.1753 2.88311C14.7193 1.38615 13.4217 0.249359 11.6798 0.249359C9.93784 0.249359 8.64018 1.38615 8.19594 2.88311C5.14468 3.94112 3.85871 6.77747 3.68335 11.0207C3.53137 12.6077 3.33263 14.161 2.50259 14.9376C1.43874 15.9168 0.304749 16.9411 0.304749 18.1454C0.304749 19.1133 1.05295 19.7549 2.26878 19.7549ZM3.15727 17.6614V17.5263C3.46122 17.1999 4.13928 16.6034 4.71212 15.9731C5.51878 15.0839 5.89288 13.4406 6.00979 11.3021C6.15007 6.78872 7.59971 5.26925 9.47022 4.78527C9.76248 4.70648 9.91446 4.57142 9.93784 4.26752C9.9963 3.13073 10.6627 2.36537 11.6798 2.36537C12.7085 2.36537 13.3632 3.13073 13.4217 4.26752C13.445 4.57142 13.6087 4.70648 13.8893 4.78527C15.7715 5.26925 17.2094 6.78872 17.3497 11.3021C17.4783 13.4406 17.8524 15.0839 18.6474 15.9731C19.2202 16.6034 19.8749 17.1999 20.1789 17.5263V17.6614H3.15727ZM11.6798 22.0622C10.3587 22.0622 9.41176 21.1506 9.32993 19.7549H14.0413C13.9711 21.1393 13.0125 22.0622 11.6798 22.0622Z" fill="#FF0000"/>
</svg>
