<svg width="18" height="19" viewBox="0 0 18 19" fill="none" xmlns="http://www.w3.org/2000/svg">
<path d="M8.54582 13.7956H9.46882V9.84181H13.4226V8.91881H9.46882V4.94956H8.54582V8.91881H4.57657V9.84181H8.54582V13.7956ZM9.00407 18.2188C7.7809 18.2188 6.6304 17.9864 5.55257 17.5216C4.47474 17.0567 3.53715 16.426 2.73982 15.6293C1.94249 14.8325 1.31207 13.8967 0.84857 12.8221C0.38507 11.7474 0.15332 10.5991 0.15332 9.37706C0.15332 8.15389 0.385737 7.00339 0.85057 5.92556C1.3154 4.84772 1.94615 3.91014 2.74282 3.11281C3.53965 2.31547 4.4754 1.68506 5.55007 1.22156C6.62474 0.758056 7.77307 0.526306 8.99507 0.526306C10.2182 0.526306 11.3687 0.758722 12.4466 1.22356C13.5244 1.68839 14.462 2.31914 15.2593 3.11581C16.0567 3.91247 16.6871 4.84822 17.1506 5.92306C17.6141 6.99772 17.8458 8.14606 17.8458 9.36806C17.8458 10.5912 17.6134 11.7417 17.1486 12.8196C16.6837 13.8974 16.053 14.835 15.2563 15.6323C14.4597 16.4296 13.5239 17.0601 12.4491 17.5236C11.3744 17.9871 10.2261 18.2188 9.00407 18.2188Z" fill="white"/>
</svg>
